#define clock_width 15
#define clock_height 15
static unsigned char clock_bits[] = {
   0xc0, 0x01, 0x70, 0x07, 0x1c, 0x1c, 0x04, 0x10, 0x06, 0x30, 0x02, 0x22,
   0x03, 0x61, 0x81, 0x40, 0x83, 0x60, 0x82, 0x20, 0x86, 0x30, 0x84, 0x10,
   0x1c, 0x1c, 0x70, 0x07, 0xc0, 0x01 };
