#define processor_width 15
#define processor_height 15
static unsigned char processor_bits[] = {
   0x00, 0x00, 0x90, 0x04, 0x90, 0x04, 0xf8, 0x0f, 0xfe, 0x3f, 0x18, 0x0c,
   0xd8, 0x0d, 0xde, 0x3d, 0xd8, 0x0d, 0x18, 0x0c, 0xfe, 0x3f, 0xf8, 0x0f,
   0x90, 0x04, 0x90, 0x04, 0x00, 0x00 };
