#define sep02_width 7
#define sep02_height 11
static unsigned char sep02_bits[] = {
   0x7f, 0x02, 0x12, 0x32, 0x1e, 0x00, 0x3c, 0x26, 0x24, 0x20, 0x7f };
