#define battery_width 10
#define battery_height 15
static unsigned char battery_bits[] = {
   0x00, 0x00, 0x60, 0x00, 0x70, 0x00, 0x38, 0x00, 0x1c, 0x00, 0x0c, 0x00,
   0x7c, 0x00, 0xf8, 0x00, 0xc0, 0x00, 0xe0, 0x00, 0x70, 0x00, 0x38, 0x00,
   0x1c, 0x00, 0x0c, 0x00, 0x00, 0x00 };
