#define calendar_width 15
#define calendar_height 15
static unsigned char calendar_bits[] = {
   0x00, 0x00, 0x00, 0x00, 0xfc, 0x1f, 0x04, 0x10, 0xf4, 0x17, 0x04, 0x10,
   0xfc, 0x1f, 0x04, 0x10, 0x04, 0x10, 0x04, 0x10, 0x04, 0x10, 0x04, 0x10,
   0x04, 0x10, 0xfc, 0x1f, 0x00, 0x00 };
