#define hourglass_width 7
#define hourglass_height 11
static unsigned char hourglass_bits[] = {
   0x7f, 0x22, 0x22, 0x2a, 0x3e, 0x08, 0x3e, 0x2a, 0x22, 0x22, 0x7f };
