#define memory_width 15
#define memory_height 15
static unsigned char memory_bits[] = {
   0x00, 0x02, 0x10, 0x07, 0xa0, 0x0f, 0xc4, 0x1d, 0xe8, 0x38, 0x71, 0x72,
   0x3a, 0x39, 0x9c, 0x1c, 0x4e, 0x0e, 0x27, 0x17, 0x8e, 0x23, 0xdc, 0x05,
   0xf8, 0x08, 0x70, 0x01, 0x20, 0x02 };
