#define sep01_width 17
#define sep01_height 7
static unsigned char sep01_bits[] = {
   0x01, 0x00, 0x01, 0xfe, 0xff, 0x00, 0x04, 0x40, 0x00, 0xc8, 0x27, 0x00,
   0x04, 0x40, 0x00, 0xfe, 0xff, 0x00, 0x01, 0x00, 0x01 };
