#define sep00_width 7
#define sep00_height 11
static unsigned char sep00_bits[] = {
   0x00, 0x07, 0x0c, 0x1a, 0x32, 0x62, 0x32, 0x1a, 0x0c, 0x07, 0x00 };
